<?xml version="1.0" encoding="utf-8"?>
<!-- Generator: Adobe Illustrator 27.2.0, SVG Export Plug-In . SVG Version: 6.00 Build 0)  -->
<svg version="1.1" id="Capa_2" xmlns="http://www.w3.org/2000/svg" xmlns:xlink="http://www.w3.org/1999/xlink" x="0px" y="0px"
	 viewBox="0 0 846.28 96.82" style="enable-background:new 0 0 846.28 96.82;" xml:space="preserve">
<style type="text/css">
	.st0{clip-path:url(#SVGID_00000060022330000601439100000007769104335546982539_);}
	.st1{fill:#010202;}
	.st2{font-family:'Calibri';}
	.st3{font-size:35.6281px;}
	.st4{fill-rule:evenodd;clip-rule:evenodd;fill:#365F92;}
	.st5{fill:none;stroke:#365F92;stroke-width:1.5;stroke-linecap:round;stroke-linejoin:round;stroke-miterlimit:8;}
</style>
<g>
	<g>
		<defs>
			<rect id="SVGID_1_" width="846.28" height="96.82"/>
		</defs>
		<clipPath id="SVGID_00000081623209331834678270000017902849574869268639_">
			<use xlink:href="#SVGID_1_"  style="overflow:visible;"/>
		</clipPath>
		<g style="clip-path:url(#SVGID_00000081623209331834678270000017902849574869268639_);">
			<text transform="matrix(0.7964 0 0 1 -8.300781e-03 33.679)" class="st1 st2 st3"> </text>
		</g>
	</g>
	<path class="st4" d="M58.83,5.6c-0.98,6.89-2.02,13.76-3,20.65c-0.94,0-1.89,0-2.85,0c-0.14-4.29-0.73-7.85-1.67-10.75
		c-0.96-2.92-2.31-4.52-3.98-4.95c-0.75-0.19-1.66-0.3-2.77-0.37c-1.1-0.06-2.31-0.11-3.67-0.11c-2.88,0-5.77,0-8.65,0
		c-1.63,11.5-3.37,22.97-5,34.48c2.04,0,4.07,0,6.11,0c1.85,0,3.33-0.29,4.35-0.9c1.02-0.56,1.99-1.51,2.77-2.9
		c0.75-1.22,1.49-2.9,2.21-5.01c0.7-2.11,1.21-3.86,1.56-5.32c0.94,0,1.89,0,2.85,0c-1.59,11.17-3.28,22.3-4.86,33.47
		c-0.94,0-1.89,0-2.85,0c0-0.43,0.04-0.98,0.08-1.63c0.04-0.61,0.04-1.27,0.04-1.99c0-1.52-0.08-2.9-0.19-4.29
		c-0.1-1.39-0.31-2.36-0.52-3.03c-0.52-1.57-1.3-2.58-2.28-3.08c-0.98-0.5-2.27-0.72-3.87-0.72c-2,0-4.02,0-6.02,0
		c-1.25,8.76-2.56,17.51-3.8,26.27c-0.14,0.96-0.27,1.99-0.37,3.14c-0.11,1.15-0.15,1.99-0.15,2.66c0,2.23,0.5,3.67,1.52,4.41
		c0.97,0.74,3.18,1.09,6.6,1.09c4.25,0,7.13-0.24,8.64-0.72c1.52-0.5,2.67-1.2,3.38-2.11c1.43-1.89,3.18-4.82,5.08-8.88
		c1.91-4.07,3.24-7.07,3.9-8.94c0.92,0,1.82,0,2.73,0c-1.53,8.41-3.16,16.82-4.7,25.23c-14.89,0-29.78,0-44.67,0
		c0.18-1.33,0.38-2.64,0.56-3.97c0.79-0.06,1.82-0.24,3.11-0.54c1.29-0.26,2.16-0.48,2.62-0.79c0.87-0.56,1.56-1.33,2.04-2.36
		c0.46-1.04,0.77-2.31,0.96-3.68c2.95-20.76,6.07-41.46,9.02-62.22c0.04-0.29,0.11-0.66,0.15-1.07c0.04-0.43,0.04-0.79,0.04-1.15
		c0-0.79-0.11-1.51-0.31-2.18c-0.22-0.66-0.61-1.2-1.17-1.63c-0.6-0.54-1.48-0.95-2.58-1.38c-1.1-0.43-1.98-0.67-2.62-0.72
		c0.18-1.33,0.38-2.66,0.56-3.99C31.04,5.6,44.93,5.6,58.83,5.6L58.83,5.6z"/>
	<path class="st4" d="M123.64,5.6c-0.2,1.33-0.41,2.66-0.61,3.99c-0.68,0.05-1.82,0.34-3.37,0.96c-1.56,0.61-2.7,1.2-3.42,1.87
		c-1.1,1.04-1.99,2.88-2.65,5.74c-0.7,2.84-1.42,6.52-2.09,10.93c-2.99,21.04-6.15,42.02-9.14,63.06c-1.14,0-2.27,0-3.41,0
		c-7.21-24.18-14.8-48.17-22-72.35c-2.23,15.59-4.59,31.14-6.83,46.75c-0.31,2.11-0.57,4.23-0.77,6.34
		c-0.18,2.11-0.29,3.86-0.29,5.19c0,1.38,0.08,2.53,0.26,3.38c0.19,0.91,0.42,1.62,0.73,2.18c0.41,0.85,1.52,1.62,3.22,2.4
		c1.71,0.8,2.85,1.22,3.42,1.28c-0.19,1.33-0.38,2.64-0.57,3.97c-7.34,0-14.69,0-22.03,0c0.19-1.33,0.38-2.64,0.57-3.97
		c0.83-0.13,2.05-0.54,3.67-1.22c1.63-0.67,2.7-1.27,3.23-1.87c1.02-1.09,1.88-2.82,2.58-5.3c0.71-2.44,1.45-6.34,2.19-11.73
		c1.99-13.86,4.1-27.68,6.07-41.56c0.19-1.33,0.31-2.47,0.38-3.44c0.08-0.9,0.11-1.81,0.11-2.6c0-0.96-0.08-1.87-0.19-2.77
		c-0.15-0.85-0.5-1.75-0.98-2.72c-0.87-1.63-1.98-2.71-3.23-3.38c-1.29-0.61-2.42-0.96-3.46-1.14c0.2-1.33,0.41-2.66,0.61-3.99
		c5.14,0,10.28,0,15.44,0c6.69,22.38,13.74,44.59,20.44,66.98c2.02-14.24,4.16-28.47,6.18-42.71c0.31-2.11,0.57-4.23,0.77-6.28
		c0.18-1.99,0.29-3.75,0.29-5.19c0-1.33-0.08-2.48-0.22-3.38c-0.19-0.91-0.42-1.57-0.77-2c-0.6-0.85-1.63-1.55-3.07-2.23
		c-1.43-0.61-2.62-1.03-3.56-1.2c0.2-1.33,0.41-2.66,0.61-3.99C109.05,5.6,116.35,5.6,123.64,5.6L123.64,5.6z"/>
	<path class="st4" d="M141.8,93.36c-3.02,0-5.84-0.77-8.45-2.31c-2.62-1.52-4.92-3.78-6.83-6.76c-1.91-2.98-3.48-6.57-4.55-10.88
		c-1.08-4.29-1.67-9.18-1.67-14.68c0-7.79,0.91-15.03,2.58-21.74c1.68-6.65,4.06-12.4,6.98-17.45c2.88-5,6.35-8.84,10.32-11.73
		c3.96-2.88,8.15-4.29,12.54-4.29c3.5,0,6.49,0.66,9,1.94c2.45,1.3,4.45,2.71,5.84,4.23c0.69-1.38,1.42-2.72,2.12-4.1
		c1.01,0,2.03,0,3.04,0c-1.3,9.98-2.68,19.96-3.98,29.96c-1.05,0-2.08,0-3.11,0c-0.04-3.33-0.23-6.65-0.54-9.85
		c-0.29-3.2-0.96-6.09-1.89-8.7c-0.97-2.6-2.37-4.69-4.06-6.28c-1.7-1.52-4.13-2.29-7.21-2.29c-3.11,0-6.05,1.23-8.8,3.86
		c-2.74,2.63-5.26,6.14-7.31,10.81c-2.02,4.49-3.66,9.84-4.82,16.13c-1.15,6.28-1.77,12.98-1.77,20.17c0,8.94,1.37,15.97,3.98,21.13
		c2.58,5.17,6.29,7.74,10.96,7.74c2.23,0,4.17-0.53,5.79-1.57c1.63-1.04,2.97-2.23,3.92-3.51c0.33-1.63,0.69-3.38,1.02-5.25
		c0.29-1.81,0.65-4.04,1.02-6.7c0.24-1.73,0.48-3.46,0.73-5.19c0.03-0.43,0.11-0.98,0.18-1.57c0.04-0.61,0.08-1.15,0.08-1.7
		c0-1.03-0.08-1.81-0.23-2.48c-0.18-0.66-0.56-1.2-1.21-1.62c-0.71-0.62-1.77-1.09-3.18-1.39c-1.4-0.3-2.5-0.48-3.23-0.54
		c0.19-1.38,0.38-2.74,0.57-4.1c7.87,0,15.74,0,23.62,0c-0.18,1.36-0.38,2.72-0.56,4.1c-0.65,0.13-1.52,0.29-2.54,0.61
		c-1.06,0.3-1.94,0.66-2.65,1.14c-0.91,0.67-1.61,1.51-2.02,2.6c-0.45,1.11-0.8,2.36-1.02,3.88c-0.32,2.31-0.66,4.63-0.98,6.94
		c-0.56,3.81-1,6.71-1.22,8.59c-0.22,1.87-0.42,3.68-0.6,5.37c-1.66,1.11-3.15,2.05-4.44,2.84c-1.33,0.8-2.96,1.55-4.89,2.36
		c-1.79,0.74-3.46,1.27-5.09,1.7C145.6,93.19,143.78,93.36,141.8,93.36L141.8,93.36z"/>
	<path class="st4" d="M207.83,5.6c-0.18,1.33-0.38,2.66-0.56,3.99c-0.8,0.05-1.82,0.22-3.07,0.53c-1.25,0.32-2.21,0.61-2.81,0.91
		c-1.06,0.56-1.82,1.33-2.28,2.42c-0.45,1.09-0.79,2.29-0.98,3.62c-2.99,20.89-6.15,41.75-9.14,62.64c-0.04,0.24-0.08,0.54-0.11,0.9
		c-0.04,0.37-0.04,0.67-0.04,0.96c0,0.91,0.11,1.7,0.38,2.36c0.26,0.67,0.71,1.2,1.37,1.7c0.37,0.3,1.21,0.59,2.5,0.96
		c1.29,0.43,2.23,0.67,2.88,0.74c-0.19,1.33-0.38,2.64-0.57,3.97c-8.08,0-16.15,0-24.23,0c0.18-1.33,0.38-2.64,0.56-3.97
		c0.73-0.06,1.71-0.18,3.04-0.37c1.33-0.19,2.25-0.42,2.81-0.72c0.98-0.56,1.76-1.33,2.25-2.36c0.48-0.98,0.83-2.18,1.02-3.57
		c2.96-20.91,6.1-41.78,9.06-62.69c0.04-0.37,0.08-0.72,0.11-1.09c0.04-0.37,0.04-0.72,0.04-1.09c0-0.79-0.11-1.51-0.31-2.11
		c-0.22-0.61-0.68-1.14-1.37-1.63c-0.68-0.48-1.59-0.95-2.77-1.38c-1.17-0.43-2.04-0.67-2.62-0.72c0.19-1.33,0.38-2.66,0.57-3.99
		C191.65,5.6,199.74,5.6,207.83,5.6L207.83,5.6z"/>
	<path class="st4" d="M269.8,5.6c-0.2,1.33-0.41,2.66-0.61,3.99c-0.68,0.05-1.82,0.34-3.37,0.96c-1.56,0.61-2.7,1.2-3.42,1.87
		c-1.08,1.04-1.98,2.88-2.65,5.74c-0.7,2.84-1.42,6.52-2.08,10.93c-2.99,21.04-6.15,42.02-9.15,63.06c-1.14,0-2.27,0-3.41,0
		c-7.21-24.18-14.79-48.17-22-72.35c-2.23,15.59-4.59,31.14-6.83,46.75c-0.29,2.11-0.57,4.23-0.77,6.34
		c-0.18,2.11-0.29,3.86-0.29,5.19c0,1.38,0.08,2.53,0.27,3.38c0.18,0.91,0.42,1.62,0.71,2.18c0.41,0.85,1.52,1.62,3.23,2.4
		c1.7,0.8,2.85,1.22,3.41,1.28c-0.18,1.33-0.38,2.64-0.56,3.97c-7.35,0-14.7,0-22.03,0c0.18-1.33,0.38-2.64,0.56-3.97
		c0.84-0.13,2.05-0.54,3.69-1.22c1.62-0.67,2.69-1.27,3.22-1.87c1.02-1.09,1.88-2.82,2.58-5.3c0.71-2.44,1.45-6.34,2.21-11.73
		c1.98-13.86,4.08-27.68,6.06-41.56c0.19-1.33,0.31-2.47,0.38-3.44c0.08-0.9,0.11-1.81,0.11-2.6c0-0.96-0.08-1.87-0.19-2.77
		c-0.15-0.85-0.5-1.75-0.98-2.72c-0.87-1.63-1.98-2.71-3.23-3.38c-1.29-0.61-2.42-0.96-3.44-1.14c0.19-1.33,0.41-2.66,0.6-3.99
		c5.14,0,10.3,0,15.44,0c6.7,22.38,13.74,44.59,20.44,66.98c2.02-14.24,4.16-28.47,6.18-42.71c0.31-2.11,0.57-4.23,0.77-6.28
		c0.18-1.99,0.31-3.75,0.31-5.19c0-1.33-0.08-2.48-0.23-3.38c-0.19-0.91-0.42-1.57-0.77-2c-0.6-0.85-1.63-1.55-3.06-2.23
		c-1.44-0.61-2.62-1.03-3.57-1.2c0.2-1.33,0.41-2.66,0.61-3.99C255.2,5.6,262.5,5.6,269.8,5.6L269.8,5.6z"/>
	<path class="st4" d="M315.31,5.6c-0.98,6.89-2.02,13.76-3,20.65c-0.96,0-1.9,0-2.85,0c-0.15-4.29-0.74-7.85-1.67-10.75
		c-0.97-2.92-2.31-4.52-3.98-4.95c-0.75-0.19-1.67-0.3-2.77-0.37c-1.1-0.06-2.31-0.11-3.67-0.11c-2.88,0-5.77,0-8.65,0
		c-1.63,11.5-3.37,22.97-5,34.48c2.03,0,4.07,0,6.1,0c1.86,0,3.34-0.29,4.36-0.9c1.02-0.56,1.98-1.51,2.77-2.9
		c0.75-1.22,1.49-2.9,2.19-5.01c0.71-2.11,1.22-3.86,1.56-5.32c0.96,0,1.9,0,2.85,0c-1.58,11.17-3.27,22.3-4.85,33.47
		c-0.96,0-1.9,0-2.85,0c0-0.43,0.04-0.98,0.08-1.63c0.04-0.61,0.04-1.27,0.04-1.99c0-1.52-0.08-2.9-0.19-4.29
		c-0.11-1.39-0.31-2.36-0.54-3.03c-0.52-1.57-1.29-2.58-2.27-3.08c-0.98-0.5-2.27-0.72-3.87-0.72c-2.02,0-4.02,0-6.04,0
		c-1.24,8.76-2.55,17.51-3.79,26.27c-0.15,0.96-0.27,1.99-0.38,3.14c-0.11,1.15-0.15,1.99-0.15,2.66c0,2.23,0.5,3.67,1.52,4.41
		c0.98,0.74,3.19,1.09,6.6,1.09c4.25,0,7.13-0.24,8.65-0.72c1.52-0.5,2.67-1.2,3.38-2.11c1.42-1.89,3.18-4.82,5.08-8.88
		c1.9-4.07,3.23-7.07,3.9-8.94c0.91,0,1.82,0,2.73,0c-1.54,8.41-3.16,16.82-4.71,25.23c-14.89,0-29.78,0-44.67,0
		c0.19-1.33,0.38-2.64,0.57-3.97c0.79-0.06,1.81-0.24,3.1-0.54c1.29-0.26,2.17-0.48,2.62-0.79c0.88-0.56,1.57-1.33,2.05-2.36
		c0.45-1.04,0.77-2.31,0.94-3.68c2.96-20.76,6.07-41.46,9.03-62.22c0.04-0.29,0.11-0.66,0.15-1.07c0.04-0.43,0.04-0.79,0.04-1.15
		c0-0.79-0.13-1.51-0.31-2.18c-0.23-0.66-0.61-1.2-1.17-1.63c-0.61-0.54-1.48-0.95-2.58-1.38c-1.11-0.43-1.98-0.67-2.63-0.72
		c0.19-1.33,0.38-2.66,0.57-3.99C287.52,5.6,301.41,5.6,315.31,5.6L315.31,5.6z"/>
	<path class="st4" d="M365.32,56.51c-1.1-11.13-2.27-22.27-3.38-33.4c-4.22,11.18-8.66,22.22-12.89,33.4
		C354.48,56.51,359.9,56.51,365.32,56.51L365.32,56.51z M359.48,91.3c0.19-1.33,0.38-2.64,0.57-3.97c0.79-0.13,1.71-0.3,2.77-0.5
		c1.02-0.18,1.86-0.42,2.42-0.72c0.79-0.43,1.37-0.83,1.79-1.27c0.37-0.43,0.56-1.15,0.56-2.05c0-0.3-0.15-2.29-0.41-5.93
		c-0.31-3.62-0.74-8.68-1.29-15.27c-6.32,0-12.62,0-18.93,0c-0.82,2.11-1.72,4.52-2.65,7.24c-0.93,2.79-1.67,4.89-2.16,6.34
		c-0.45,1.27-0.88,2.71-1.29,4.28c-0.41,1.63-0.65,2.66-0.65,3.2c0,1.33,0.69,2.4,2.02,3.2c1.33,0.8,3.04,1.27,5.04,1.46
		c-0.18,1.33-0.38,2.64-0.56,3.97c-6.88,0-13.75,0-20.63,0c0.18-1.33,0.38-2.64,0.56-3.97c0.65-0.06,1.52-0.3,2.54-0.74
		c1.07-0.37,1.94-0.83,2.65-1.51c0.87-0.8,1.76-1.79,2.59-3.01c0.78-1.17,1.68-2.96,2.62-5.32c4.29-11.1,9.26-23.26,14.4-36.85
		c5.12-13.59,9.85-25.33,13.77-35.52c1.01,0,2.03,0,3.04,0c2.33,24.75,4.82,49.49,7.17,74.24c0.14,1.51,0.42,2.71,0.75,3.73
		c0.33,1.04,0.88,1.99,1.59,2.9c0.48,0.56,1.17,1.03,2.04,1.39c0.88,0.43,1.63,0.61,2.28,0.67c-0.19,1.33-0.38,2.64-0.57,3.97
		C374.18,91.3,366.83,91.3,359.48,91.3L359.48,91.3z"/>
	<path class="st4" d="M419.26,5.6c-0.19,1.33-0.38,2.66-0.57,3.99c-0.79,0.05-1.82,0.22-3.07,0.53c-1.25,0.32-2.19,0.61-2.81,0.91
		c-1.06,0.56-1.82,1.33-2.27,2.42s-0.8,2.29-0.98,3.62c-2.99,20.89-6.15,41.75-9.15,62.64c-0.04,0.24-0.08,0.54-0.11,0.9
		c-0.03,0.37-0.03,0.67-0.03,0.96c0,0.91,0.11,1.7,0.37,2.36c0.27,0.67,0.73,1.2,1.37,1.7c0.38,0.3,1.21,0.59,2.5,0.96
		c1.29,0.43,2.25,0.67,2.88,0.74c-0.18,1.33-0.38,2.64-0.56,3.97c-8.08,0-16.15,0-24.24,0c0.19-1.33,0.38-2.64,0.57-3.97
		c0.71-0.06,1.71-0.18,3.04-0.37c1.33-0.19,2.23-0.42,2.81-0.72c0.98-0.56,1.75-1.33,2.23-2.36c0.48-0.98,0.84-2.18,1.02-3.57
		c2.97-20.91,6.11-41.78,9.07-62.69c0.04-0.37,0.08-0.72,0.11-1.09c0.04-0.37,0.04-0.72,0.04-1.09c0-0.79-0.13-1.51-0.31-2.11
		c-0.23-0.61-0.69-1.14-1.37-1.63c-0.68-0.48-1.59-0.95-2.77-1.38c-1.17-0.43-2.05-0.67-2.62-0.72c0.18-1.33,0.38-2.66,0.56-3.99
		C403.07,5.6,411.17,5.6,419.26,5.6L419.26,5.6z"/>
	<path class="st4" d="M466.47,87.32c-0.19,1.33-0.41,2.64-0.6,3.97c-4.54,0-9.08,0-13.61,0c-2.13-8.17-4.25-15.08-6.11-20.89
		c-1.9-5.75-3.98-11.76-6.07-18.12c-1.86,0-3.74,0-5.6,0c-1.31,9.23-2.72,18.44-4.03,27.67c-0.03,0.3-0.08,0.72-0.1,1.14
		c-0.04,0.43-0.08,0.79-0.08,0.98c0,0.9,0.11,1.75,0.33,2.4c0.19,0.67,0.57,1.2,1.15,1.63c0.33,0.26,1.1,0.48,2.27,0.72
		c1.14,0.32,2.08,0.43,2.85,0.5c-0.2,1.33-0.41,2.64-0.61,3.97c-7.58,0-15.17,0-22.75,0c0.19-1.33,0.41-2.64,0.6-3.97
		c0.65-0.06,1.52-0.24,2.69-0.43c1.19-0.18,2.02-0.48,2.51-0.79c0.91-0.54,1.59-1.38,2.08-2.47c0.48-1.04,0.8-2.31,0.98-3.68
		c2.97-20.88,6.11-41.7,9.07-62.58c0.04-0.43,0.11-0.85,0.15-1.27c0.04-0.43,0.04-0.79,0.04-1.22c0-0.85-0.13-1.57-0.31-2.23
		c-0.19-0.67-0.57-1.14-1.14-1.51c-0.54-0.32-1.3-0.67-2.32-0.98c-1.02-0.3-1.85-0.54-2.5-0.59c0.19-1.33,0.38-2.66,0.57-3.99
		c8.06,0,16.13,0,24.19,0c2.16,0,4.17,0.35,5.96,1.03c1.77,0.67,3.3,1.62,4.5,2.84c1.33,1.28,2.41,2.95,3.19,5.08
		c0.78,2.11,1.17,4.58,1.17,7.42c0,3.81-0.47,7.24-1.33,10.33c-0.89,3.16-2.14,5.78-3.64,8.03c-1.58,2.32-3.42,4.15-5.42,5.69
		s-4.25,2.69-6.67,3.62c1.94,6.12,3.59,10.86,4.81,14.43c1.24,3.57,2.72,7.9,4.36,13.11c0.85,2.61,1.63,4.47,2.31,5.62
		c0.68,1.15,1.42,2.1,2.17,2.77c0.64,0.56,1.44,0.96,2.46,1.27C465.02,87.15,465.83,87.26,466.47,87.32L466.47,87.32z M455.62,23.24
		c0-4.12-0.82-7.29-2.39-9.61c-1.58-2.31-3.83-3.44-6.67-3.44c-2.02,0-4.02,0-6.04,0c-1.74,12.42-3.57,24.8-5.31,37.22
		c1.8,0,3.59,0,5.38,0c4.13,0,7.73-2.26,10.62-6.95C454.1,35.82,455.62,30.11,455.62,23.24L455.62,23.24z"/>
	<path class="st4" d="M506.44,93.06c-3.11,0-5.84-0.59-8.15-1.87c-2.35-1.23-4.26-2.58-5.69-4.23c-0.71,1.47-1.45,2.93-2.16,4.41
		c-1.02,0-2.03,0-3.04,0c1.21-9.79,2.5-19.56,3.71-29.35c1.02,0,2.05,0,3.07,0c0.11,3.51,0.42,6.76,0.87,9.84
		c0.45,3.09,1.24,5.8,2.28,8.28c1.03,2.55,2.44,4.45,4.13,5.86c1.68,1.41,3.79,2.11,6.29,2.11c3.75,0,6.81-1.67,9.06-5.01
		c2.26-3.35,3.42-7.85,3.42-13.6c0-3.08-0.51-5.85-1.44-8.27c-0.93-2.42-2.4-4.26-4.33-5.62c-1.81-1.28-3.61-2.34-5.38-3.38
		c-1.77-0.98-3.57-2.1-5.27-3.44c-2.27-1.78-4.12-4.21-5.46-7.48c-1.38-3.22-2.09-6.89-2.09-10.94c0-3.86,0.55-7.42,1.63-10.69
		c1.05-3.27,2.49-6.07,4.25-8.46c1.68-2.31,3.8-4.09,6.25-5.5c2.42-1.41,4.86-2.05,7.25-2.05c2.25,0,4.4,0.4,6.4,1.27
		c2.02,0.87,4.04,2.39,6.04,4.77c0.69-1.38,1.4-2.72,2.09-4.1c1.01,0,2.02,0,3.02,0c-1.25,9.48-2.58,18.95-3.83,28.44
		c-1.02,0-2.04,0-3.07,0c-0.06-3.08-0.27-6.28-0.56-9.6c-0.33-3.32-0.89-6.04-1.63-8.22c-0.82-2.36-2.02-4.21-3.48-5.61
		c-1.48-1.35-3.5-2-5.96-2c-3,0-5.49,1.6-7.48,4.9c-1.98,3.33-3.02,7.18-3.02,11.71c0,2.96,0.38,5.5,1.1,7.55
		c0.7,2.13,1.9,3.8,3.44,5.08c1.66,1.41,3.42,2.52,5.27,3.51c1.82,1.04,3.46,2.03,4.9,3.14c2.9,2.19,5.22,4.74,6.83,7.85
		c1.61,3.09,2.42,6.82,2.42,11.23c0,4.29-0.59,8.27-1.75,11.95c-1.15,3.7-2.74,6.81-4.66,9.31c-2.03,2.69-4.34,4.69-6.86,6.1
		C512.32,92.35,509.51,93.06,506.44,93.06L506.44,93.06z"/>
	<path class="st4" d="M564.49,56.51c-1.1-11.13-2.27-22.27-3.37-33.4c-4.22,11.18-8.66,22.22-12.9,33.4
		C553.65,56.51,559.07,56.51,564.49,56.51L564.49,56.51z M558.66,91.3c0.18-1.33,0.38-2.64,0.56-3.97c0.8-0.13,1.71-0.3,2.77-0.5
		c1.03-0.18,1.86-0.42,2.44-0.72c0.79-0.43,1.37-0.83,1.77-1.27c0.38-0.43,0.57-1.15,0.57-2.05c0-0.3-0.15-2.29-0.42-5.93
		c-0.29-3.62-0.73-8.68-1.29-15.27c-6.3,0-12.62,0-18.92,0c-0.82,2.11-1.72,4.52-2.65,7.24c-0.93,2.79-1.68,4.89-2.17,6.34
		c-0.45,1.27-0.88,2.71-1.29,4.28c-0.41,1.63-0.64,2.66-0.64,3.2c0,1.33,0.69,2.4,2,3.2c1.33,0.8,3.04,1.27,5.05,1.46
		c-0.19,1.33-0.38,2.64-0.57,3.97c-6.88,0-13.75,0-20.63,0c0.19-1.33,0.38-2.64,0.57-3.97c0.64-0.06,1.52-0.3,2.54-0.74
		c1.06-0.37,1.94-0.83,2.65-1.51c0.87-0.8,1.75-1.79,2.58-3.01c0.79-1.17,1.68-2.96,2.62-5.32c4.29-11.1,9.26-23.26,14.42-36.85
		c5.1-13.59,9.85-25.33,13.77-35.52c1.01,0,2.02,0,3.02,0c2.35,24.75,4.84,49.49,7.17,74.24c0.15,1.51,0.42,2.71,0.77,3.73
		c0.33,1.04,0.87,1.99,1.58,2.9c0.5,0.56,1.19,1.03,2.05,1.39c0.87,0.43,1.63,0.61,2.27,0.67c-0.18,1.33-0.38,2.64-0.56,3.97
		C573.35,91.3,566,91.3,558.66,91.3L558.66,91.3z"/>
	<path class="st4" d="M659.61,38.64c0,8.15-1.02,15.57-3,22.22c-1.98,6.73-4.66,12.16-7.85,16.61c-3.34,4.57-7.11,7.93-11.23,10.33
		c-4.12,2.39-8.5,3.49-13,3.49c-7.83,0-15.66,0-23.48,0c0.18-1.33,0.38-2.64,0.56-3.97c0.65,0,1.59-0.13,2.81-0.3
		c1.17-0.19,2.05-0.48,2.54-0.79c0.92-0.56,1.61-1.39,2.09-2.42c0.45-1.03,0.77-2.23,0.94-3.62c2.93-20.57,6.02-41.11,8.96-61.68
		c0.08-0.48,0.15-1.03,0.23-1.62c0.03-0.54,0.06-1.03,0.06-1.39c0-0.91-0.08-1.68-0.26-2.36c-0.19-0.67-0.61-1.2-1.17-1.63
		c-0.65-0.48-1.49-0.9-2.44-1.27c-0.94-0.3-1.7-0.54-2.19-0.66c0.18-1.33,0.38-2.66,0.56-3.99c7.6,0,15.2,0,22.8,0
		c2.27,0,4.75,0.46,7.43,1.51c2.69,1.04,5.22,2.8,7.52,5.32c2.44,2.63,4.47,6.09,5.92,10.45C658.87,27.29,659.61,32.53,659.61,38.64
		L659.61,38.64z M650.69,38.75c0-8.99-1.54-16.02-4.54-21.07c-3.04-5.06-7.09-7.5-12.13-7.5c-1.03,0-2.13,0-3.23,0.06
		c-1.1,0.06-1.98,0.11-2.62,0.18c-3.15,22.2-6.48,44.36-9.63,66.57c-0.08,0.54-0.15,1.09-0.19,1.63c-0.04,0.54-0.08,1.03-0.08,1.51
		c0,2.42,0.65,4.09,1.9,5.08c1.24,1.04,3.33,1.51,6.21,1.51c3.76,0,7.23-1.35,10.32-4.1c3.05-2.76,5.68-6.39,7.69-10.94
		c2.05-4.73,3.7-9.84,4.75-15.4C650.14,50.72,650.69,44.85,650.69,38.75L650.69,38.75z"/>
	<path class="st4" d="M712.97,5.6c-0.98,6.89-2.02,13.76-3,20.65c-0.94,0-1.89,0-2.85,0c-0.14-4.29-0.73-7.85-1.67-10.75
		c-0.96-2.92-2.31-4.52-3.98-4.95c-0.75-0.19-1.66-0.3-2.77-0.37c-1.1-0.06-2.31-0.11-3.67-0.11c-2.88,0-5.77,0-8.65,0
		c-1.63,11.5-3.37,22.97-5,34.48c2.04,0,4.07,0,6.11,0c1.85,0,3.33-0.29,4.35-0.9c1.02-0.56,1.99-1.51,2.77-2.9
		c0.75-1.22,1.49-2.9,2.21-5.01c0.7-2.11,1.21-3.86,1.56-5.32c0.94,0,1.89,0,2.85,0c-1.59,11.17-3.28,22.3-4.86,33.47
		c-0.94,0-1.89,0-2.85,0c0-0.43,0.04-0.98,0.08-1.63c0.04-0.61,0.04-1.27,0.04-1.99c0-1.52-0.08-2.9-0.19-4.29
		c-0.1-1.39-0.31-2.36-0.52-3.03c-0.52-1.57-1.3-2.58-2.28-3.08c-0.98-0.5-2.27-0.72-3.87-0.72c-2,0-4.02,0-6.02,0
		c-1.25,8.76-2.56,17.51-3.8,26.27c-0.14,0.96-0.27,1.99-0.37,3.14c-0.11,1.15-0.15,1.99-0.15,2.66c0,2.23,0.5,3.67,1.52,4.41
		c0.97,0.74,3.18,1.09,6.6,1.09c4.25,0,7.13-0.24,8.64-0.72c1.52-0.5,2.67-1.2,3.38-2.11c1.43-1.89,3.18-4.82,5.08-8.88
		c1.91-4.07,3.24-7.07,3.9-8.94c0.92,0,1.82,0,2.73,0c-1.53,8.41-3.16,16.82-4.7,25.23c-14.89,0-29.78,0-44.67,0
		c0.18-1.33,0.38-2.64,0.56-3.97c0.8-0.06,1.82-0.24,3.11-0.54c1.29-0.26,2.16-0.48,2.62-0.79c0.87-0.56,1.56-1.33,2.04-2.36
		c0.46-1.04,0.77-2.31,0.96-3.68c2.95-20.76,6.07-41.46,9.02-62.22c0.04-0.29,0.11-0.66,0.15-1.07c0.04-0.43,0.04-0.79,0.04-1.15
		c0-0.79-0.11-1.51-0.31-2.18c-0.22-0.66-0.61-1.2-1.17-1.63c-0.6-0.54-1.48-0.95-2.58-1.38c-1.1-0.43-1.98-0.67-2.62-0.72
		c0.18-1.33,0.38-2.66,0.56-3.99C685.18,5.6,699.08,5.6,712.97,5.6L712.97,5.6z"/>
	<path class="st4" d="M753.73,93.36c-2.77,0-5.36-0.77-7.81-2.31c-2.46-1.52-4.62-3.72-6.41-6.7c-1.84-2.98-3.32-6.58-4.33-10.81
		c-1.05-4.23-1.59-9-1.59-14.31c0-7.67,0.83-14.79,2.42-21.39c1.61-6.6,3.87-12.46,6.67-17.7c2.69-5.05,6.06-8.96,9.86-12.08
		c3.81-3.06,7.81-4.53,11.98-4.53c3.15,0,5.96,0.59,8.34,1.76c2.39,1.23,4.34,2.63,5.88,4.41c0.7-1.38,1.43-2.72,2.12-4.1
		c1.02,0,2.03,0,3.04,0c-1.34,10.19-2.76,20.36-4.1,30.55c-1.03,0-2.07,0-3.11,0c0-0.8,0-1.6,0-2.4c0-3.33-0.15-6.47-0.48-9.48
		c-0.33-2.96-0.97-5.67-1.9-8.11c-0.89-2.36-2.17-4.2-3.71-5.61c-1.58-1.41-3.6-2.11-6.07-2.11c-3.1,0-6.01,1.3-8.64,3.99
		c-2.68,2.69-5.04,6.14-6.94,10.56c-1.91,4.31-3.48,9.55-4.63,15.76c-1.15,6.3-1.75,12.69-1.75,19.16c0,8.57,1.37,15.49,3.98,20.83
		c2.59,5.42,6.19,8.04,10.63,8.04c3.71,0,7.16-1.71,10.27-5.25c3.09-3.54,5.69-8.2,7.63-14.08c0.89,0.79,1.82,1.52,2.73,2.31
		c-3.14,8.67-6.79,14.68-10.67,18.3C763.28,91.65,758.79,93.36,753.73,93.36L753.73,93.36z"/>
	<path class="st4" d="M840.89,5.6c-0.19,1.33-0.38,2.66-0.57,3.99c-0.65,0.05-1.48,0.22-2.46,0.66c-0.98,0.43-1.86,0.9-2.58,1.57
		c-1.1,0.98-1.99,2.1-2.62,3.38c-0.68,1.28-1.42,2.84-2.13,4.6c-2.58,6.42-6.72,16.37-12.02,30.07
		c-5.33,13.71-11.05,27.8-16.69,42.52c-1.05,0-2.09,0-3.15,0c-1.19-13.59-2.53-28.32-3.9-44.2c-1.38-15.89-2.36-26.03-2.77-30.46
		c-0.1-1.31-0.38-2.47-0.71-3.38c-0.37-0.9-0.92-1.73-1.63-2.6c-0.56-0.67-1.25-1.2-2.05-1.57c-0.79-0.3-1.51-0.54-2.19-0.59
		c0.19-1.33,0.38-2.66,0.57-3.99c7.25,0,14.51,0,21.77,0c-0.19,1.33-0.38,2.66-0.57,3.99c-2.69,0.18-4.56,0.59-5.65,1.2
		c-1.1,0.67-1.66,1.57-1.66,2.77c0,0.43,0,0.85,0.03,1.28c0.04,0.48,0.04,0.83,0.04,1.03c0.34,3.93,0.93,10.45,1.71,19.5
		c0.78,9.13,2,21.87,3.5,38.35c3.47-8.8,7.15-17.78,10.73-27.17c3.59-9.4,6.28-16.23,7.89-20.6c1.49-4.05,2.48-6.87,2.81-8.51
		c0.33-1.63,0.5-2.66,0.5-3.09c0-0.79-0.24-1.51-0.73-2.05c-0.48-0.54-1.1-1.03-1.82-1.39c-0.71-0.42-1.54-0.72-2.42-0.9
		c-0.87-0.19-1.63-0.37-2.27-0.42c0.19-1.33,0.38-2.66,0.57-3.99C827.21,5.6,834.05,5.6,840.89,5.6L840.89,5.6z"/>
	<path class="st5" d="M58.83,5.6c-0.98,6.89-2.02,13.76-3,20.65c-0.94,0-1.89,0-2.85,0c-0.14-4.29-0.73-7.85-1.67-10.75
		c-0.96-2.92-2.31-4.52-3.98-4.95c-0.75-0.19-1.66-0.3-2.77-0.37c-1.1-0.06-2.31-0.11-3.67-0.11c-2.88,0-5.77,0-8.65,0
		c-1.63,11.5-3.37,22.97-5,34.48c2.04,0,4.07,0,6.11,0c1.85,0,3.33-0.29,4.35-0.9c1.02-0.56,1.99-1.51,2.77-2.9
		c0.75-1.22,1.49-2.9,2.21-5.01c0.7-2.11,1.21-3.86,1.56-5.32c0.94,0,1.89,0,2.85,0c-1.59,11.17-3.28,22.3-4.86,33.47
		c-0.94,0-1.89,0-2.85,0c0-0.43,0.04-0.98,0.08-1.63c0.04-0.61,0.04-1.27,0.04-1.99c0-1.52-0.08-2.9-0.19-4.29
		c-0.1-1.39-0.31-2.36-0.52-3.03c-0.52-1.57-1.3-2.58-2.28-3.08c-0.98-0.5-2.27-0.72-3.87-0.72c-2,0-4.02,0-6.02,0
		c-1.25,8.76-2.56,17.51-3.8,26.27c-0.14,0.96-0.27,1.99-0.37,3.14c-0.11,1.15-0.15,1.99-0.15,2.66c0,2.23,0.5,3.67,1.52,4.41
		c0.97,0.74,3.18,1.09,6.6,1.09c4.25,0,7.13-0.24,8.64-0.72c1.52-0.5,2.67-1.2,3.38-2.11c1.43-1.89,3.18-4.82,5.08-8.88
		c1.91-4.07,3.24-7.07,3.9-8.94c0.92,0,1.82,0,2.73,0c-1.53,8.41-3.16,16.82-4.7,25.23c-14.89,0-29.78,0-44.67,0
		c0.18-1.33,0.38-2.64,0.56-3.97c0.79-0.06,1.82-0.24,3.11-0.54c1.29-0.26,2.16-0.48,2.62-0.79c0.87-0.56,1.56-1.33,2.04-2.36
		c0.46-1.04,0.77-2.31,0.96-3.68c2.95-20.76,6.07-41.46,9.02-62.22c0.04-0.29,0.11-0.66,0.15-1.07c0.04-0.43,0.04-0.79,0.04-1.15
		c0-0.79-0.11-1.51-0.31-2.18c-0.22-0.66-0.61-1.2-1.17-1.63c-0.6-0.54-1.48-0.95-2.58-1.38c-1.1-0.43-1.98-0.67-2.62-0.72
		c0.18-1.33,0.38-2.66,0.56-3.99C31.04,5.6,44.93,5.6,58.83,5.6L58.83,5.6z"/>
	<path class="st5" d="M123.64,5.6c-0.2,1.33-0.41,2.66-0.61,3.99c-0.68,0.05-1.82,0.34-3.37,0.96c-1.56,0.61-2.7,1.2-3.42,1.87
		c-1.1,1.04-1.99,2.88-2.65,5.74c-0.7,2.84-1.42,6.52-2.09,10.93c-2.99,21.04-6.15,42.02-9.14,63.06c-1.14,0-2.27,0-3.41,0
		c-7.21-24.18-14.8-48.17-22-72.35c-2.23,15.59-4.59,31.14-6.83,46.75c-0.31,2.11-0.57,4.23-0.77,6.34
		c-0.18,2.11-0.29,3.86-0.29,5.19c0,1.38,0.08,2.53,0.26,3.38c0.19,0.91,0.42,1.62,0.73,2.18c0.41,0.85,1.52,1.62,3.22,2.4
		c1.71,0.8,2.85,1.22,3.42,1.28c-0.19,1.33-0.38,2.64-0.57,3.97c-7.34,0-14.69,0-22.03,0c0.19-1.33,0.38-2.64,0.57-3.97
		c0.83-0.13,2.05-0.54,3.67-1.22c1.63-0.67,2.7-1.27,3.23-1.87c1.02-1.09,1.88-2.82,2.58-5.3c0.71-2.44,1.45-6.34,2.19-11.73
		c1.99-13.86,4.1-27.68,6.07-41.56c0.19-1.33,0.31-2.47,0.38-3.44c0.08-0.9,0.11-1.81,0.11-2.6c0-0.96-0.08-1.87-0.19-2.77
		c-0.15-0.85-0.5-1.75-0.98-2.72c-0.87-1.63-1.98-2.71-3.23-3.38c-1.29-0.61-2.42-0.96-3.46-1.14c0.2-1.33,0.41-2.66,0.61-3.99
		c5.14,0,10.28,0,15.44,0c6.69,22.38,13.74,44.59,20.44,66.98c2.02-14.24,4.16-28.47,6.18-42.71c0.31-2.11,0.57-4.23,0.77-6.28
		c0.18-1.99,0.29-3.75,0.29-5.19c0-1.33-0.08-2.48-0.22-3.38c-0.19-0.91-0.42-1.57-0.77-2c-0.6-0.85-1.63-1.55-3.07-2.23
		c-1.43-0.61-2.62-1.03-3.56-1.2c0.2-1.33,0.41-2.66,0.61-3.99C109.05,5.6,116.35,5.6,123.64,5.6L123.64,5.6z"/>
	<path class="st5" d="M141.8,93.36c-3.02,0-5.84-0.77-8.45-2.31c-2.62-1.52-4.92-3.78-6.83-6.76c-1.91-2.98-3.48-6.57-4.55-10.88
		c-1.08-4.29-1.67-9.18-1.67-14.68c0-7.79,0.91-15.03,2.58-21.74c1.68-6.65,4.06-12.4,6.98-17.45c2.88-5,6.35-8.84,10.32-11.73
		c3.96-2.88,8.15-4.29,12.54-4.29c3.5,0,6.49,0.66,9,1.94c2.45,1.3,4.45,2.71,5.84,4.23c0.69-1.38,1.42-2.72,2.12-4.1
		c1.01,0,2.03,0,3.04,0c-1.3,9.98-2.68,19.96-3.98,29.96c-1.05,0-2.08,0-3.11,0c-0.04-3.33-0.23-6.65-0.54-9.85
		c-0.29-3.2-0.96-6.09-1.89-8.7c-0.97-2.6-2.37-4.69-4.06-6.28c-1.7-1.52-4.13-2.29-7.21-2.29c-3.11,0-6.05,1.23-8.8,3.86
		c-2.74,2.63-5.26,6.14-7.31,10.81c-2.02,4.49-3.66,9.84-4.82,16.13c-1.15,6.28-1.77,12.98-1.77,20.17c0,8.94,1.37,15.97,3.98,21.13
		c2.58,5.17,6.29,7.74,10.96,7.74c2.23,0,4.17-0.53,5.79-1.57c1.63-1.04,2.97-2.23,3.92-3.51c0.33-1.63,0.69-3.38,1.02-5.25
		c0.29-1.81,0.65-4.04,1.02-6.7c0.24-1.73,0.48-3.46,0.73-5.19c0.03-0.43,0.11-0.98,0.18-1.57c0.04-0.61,0.08-1.15,0.08-1.7
		c0-1.03-0.08-1.81-0.23-2.48c-0.18-0.66-0.56-1.2-1.21-1.62c-0.71-0.62-1.77-1.09-3.18-1.39c-1.4-0.3-2.5-0.48-3.23-0.54
		c0.19-1.38,0.38-2.74,0.57-4.1c7.87,0,15.74,0,23.62,0c-0.18,1.36-0.38,2.72-0.56,4.1c-0.65,0.13-1.52,0.29-2.54,0.61
		c-1.06,0.3-1.94,0.66-2.65,1.14c-0.91,0.67-1.61,1.51-2.02,2.6c-0.45,1.11-0.8,2.36-1.02,3.88c-0.32,2.31-0.66,4.63-0.98,6.94
		c-0.56,3.81-1,6.71-1.22,8.59c-0.22,1.87-0.42,3.68-0.6,5.37c-1.66,1.11-3.15,2.05-4.44,2.84c-1.33,0.8-2.96,1.55-4.89,2.36
		c-1.79,0.74-3.46,1.27-5.09,1.7C145.6,93.19,143.78,93.36,141.8,93.36L141.8,93.36z"/>
	<path class="st5" d="M207.83,5.6c-0.18,1.33-0.38,2.66-0.56,3.99c-0.8,0.05-1.82,0.22-3.07,0.53c-1.25,0.32-2.21,0.61-2.81,0.91
		c-1.06,0.56-1.82,1.33-2.28,2.42c-0.45,1.09-0.79,2.29-0.98,3.62c-2.99,20.89-6.15,41.75-9.14,62.64c-0.04,0.24-0.08,0.54-0.11,0.9
		c-0.04,0.37-0.04,0.67-0.04,0.96c0,0.91,0.11,1.7,0.38,2.36c0.26,0.67,0.71,1.2,1.37,1.7c0.37,0.3,1.21,0.59,2.5,0.96
		c1.29,0.43,2.23,0.67,2.88,0.74c-0.19,1.33-0.38,2.64-0.57,3.97c-8.08,0-16.15,0-24.23,0c0.18-1.33,0.38-2.64,0.56-3.97
		c0.73-0.06,1.71-0.18,3.04-0.37c1.33-0.19,2.25-0.42,2.81-0.72c0.98-0.56,1.76-1.33,2.25-2.36c0.48-0.98,0.83-2.18,1.02-3.57
		c2.96-20.91,6.1-41.78,9.06-62.69c0.04-0.37,0.08-0.72,0.11-1.09c0.04-0.37,0.04-0.72,0.04-1.09c0-0.79-0.11-1.51-0.31-2.11
		c-0.22-0.61-0.68-1.14-1.37-1.63c-0.68-0.48-1.59-0.95-2.77-1.38c-1.17-0.43-2.04-0.67-2.62-0.72c0.19-1.33,0.38-2.66,0.57-3.99
		C191.65,5.6,199.74,5.6,207.83,5.6L207.83,5.6z"/>
	<path class="st5" d="M269.8,5.6c-0.2,1.33-0.41,2.66-0.61,3.99c-0.68,0.05-1.82,0.34-3.37,0.96c-1.56,0.61-2.7,1.2-3.42,1.87
		c-1.08,1.04-1.98,2.88-2.65,5.74c-0.7,2.84-1.42,6.52-2.08,10.93c-2.99,21.04-6.15,42.02-9.15,63.06c-1.14,0-2.27,0-3.41,0
		c-7.21-24.18-14.79-48.17-22-72.35c-2.23,15.59-4.59,31.14-6.83,46.75c-0.29,2.11-0.57,4.23-0.77,6.34
		c-0.18,2.11-0.29,3.86-0.29,5.19c0,1.38,0.08,2.53,0.27,3.38c0.18,0.91,0.42,1.62,0.71,2.18c0.41,0.85,1.52,1.62,3.23,2.4
		c1.7,0.8,2.85,1.22,3.41,1.28c-0.18,1.33-0.38,2.64-0.56,3.97c-7.35,0-14.7,0-22.03,0c0.18-1.33,0.38-2.64,0.56-3.97
		c0.84-0.13,2.05-0.54,3.69-1.22c1.62-0.67,2.69-1.27,3.22-1.87c1.02-1.09,1.88-2.82,2.58-5.3c0.71-2.44,1.45-6.34,2.21-11.73
		c1.98-13.86,4.08-27.68,6.06-41.56c0.19-1.33,0.31-2.47,0.38-3.44c0.08-0.9,0.11-1.81,0.11-2.6c0-0.96-0.08-1.87-0.19-2.77
		c-0.15-0.85-0.5-1.75-0.98-2.72c-0.87-1.63-1.98-2.71-3.23-3.38c-1.29-0.61-2.42-0.96-3.44-1.14c0.19-1.33,0.41-2.66,0.6-3.99
		c5.14,0,10.3,0,15.44,0c6.7,22.38,13.74,44.59,20.44,66.98c2.02-14.24,4.16-28.47,6.18-42.71c0.31-2.11,0.57-4.23,0.77-6.28
		c0.18-1.99,0.31-3.75,0.31-5.19c0-1.33-0.08-2.48-0.23-3.38c-0.19-0.91-0.42-1.57-0.77-2c-0.6-0.85-1.63-1.55-3.06-2.23
		c-1.44-0.61-2.62-1.03-3.57-1.2c0.2-1.33,0.41-2.66,0.61-3.99C255.2,5.6,262.5,5.6,269.8,5.6L269.8,5.6z"/>
	<path class="st5" d="M315.31,5.6c-0.98,6.89-2.02,13.76-3,20.65c-0.96,0-1.9,0-2.85,0c-0.15-4.29-0.74-7.85-1.67-10.75
		c-0.97-2.92-2.31-4.52-3.98-4.95c-0.75-0.19-1.67-0.3-2.77-0.37c-1.1-0.06-2.31-0.11-3.67-0.11c-2.88,0-5.77,0-8.65,0
		c-1.63,11.5-3.37,22.97-5,34.48c2.03,0,4.07,0,6.1,0c1.86,0,3.34-0.29,4.36-0.9c1.02-0.56,1.98-1.51,2.77-2.9
		c0.75-1.22,1.49-2.9,2.19-5.01c0.71-2.11,1.22-3.86,1.56-5.32c0.96,0,1.9,0,2.85,0c-1.58,11.17-3.27,22.3-4.85,33.47
		c-0.96,0-1.9,0-2.85,0c0-0.43,0.04-0.98,0.08-1.63c0.04-0.61,0.04-1.27,0.04-1.99c0-1.52-0.08-2.9-0.19-4.29
		c-0.11-1.39-0.31-2.36-0.54-3.03c-0.52-1.57-1.29-2.58-2.27-3.08c-0.98-0.5-2.27-0.72-3.87-0.72c-2.02,0-4.02,0-6.04,0
		c-1.24,8.76-2.55,17.51-3.79,26.27c-0.15,0.96-0.27,1.99-0.38,3.14c-0.11,1.15-0.15,1.99-0.15,2.66c0,2.23,0.5,3.67,1.52,4.41
		c0.98,0.74,3.19,1.09,6.6,1.09c4.25,0,7.13-0.24,8.65-0.72c1.52-0.5,2.67-1.2,3.38-2.11c1.42-1.89,3.18-4.82,5.08-8.88
		c1.9-4.07,3.23-7.07,3.9-8.94c0.91,0,1.82,0,2.73,0c-1.54,8.41-3.16,16.82-4.71,25.23c-14.89,0-29.78,0-44.67,0
		c0.19-1.33,0.38-2.64,0.57-3.97c0.79-0.06,1.81-0.24,3.1-0.54c1.29-0.26,2.17-0.48,2.62-0.79c0.88-0.56,1.57-1.33,2.05-2.36
		c0.45-1.04,0.77-2.31,0.94-3.68c2.96-20.76,6.07-41.46,9.03-62.22c0.04-0.29,0.11-0.66,0.15-1.07c0.04-0.43,0.04-0.79,0.04-1.15
		c0-0.79-0.13-1.51-0.31-2.18c-0.23-0.66-0.61-1.2-1.17-1.63c-0.61-0.54-1.48-0.95-2.58-1.38c-1.11-0.43-1.98-0.67-2.63-0.72
		c0.19-1.33,0.38-2.66,0.57-3.99C287.52,5.6,301.41,5.6,315.31,5.6L315.31,5.6z"/>
	<path class="st5" d="M365.32,56.51c-1.1-11.13-2.27-22.27-3.38-33.4c-4.22,11.18-8.66,22.22-12.89,33.4
		C354.48,56.51,359.9,56.51,365.32,56.51L365.32,56.51z M359.48,91.3c0.19-1.33,0.38-2.64,0.57-3.97c0.79-0.13,1.71-0.3,2.77-0.5
		c1.02-0.18,1.86-0.42,2.42-0.72c0.79-0.43,1.37-0.83,1.79-1.27c0.37-0.43,0.56-1.15,0.56-2.05c0-0.3-0.15-2.29-0.41-5.93
		c-0.31-3.62-0.74-8.68-1.29-15.27c-6.32,0-12.62,0-18.93,0c-0.82,2.11-1.72,4.52-2.65,7.24c-0.93,2.79-1.67,4.89-2.16,6.34
		c-0.45,1.27-0.88,2.71-1.29,4.28c-0.41,1.63-0.65,2.66-0.65,3.2c0,1.33,0.69,2.4,2.02,3.2c1.33,0.8,3.04,1.27,5.04,1.46
		c-0.18,1.33-0.38,2.64-0.56,3.97c-6.88,0-13.75,0-20.63,0c0.18-1.33,0.38-2.64,0.56-3.97c0.65-0.06,1.52-0.3,2.54-0.74
		c1.07-0.37,1.94-0.83,2.65-1.51c0.87-0.8,1.76-1.79,2.59-3.01c0.78-1.17,1.68-2.96,2.62-5.32c4.29-11.1,9.26-23.26,14.4-36.85
		c5.12-13.59,9.85-25.33,13.77-35.52c1.01,0,2.03,0,3.04,0c2.33,24.75,4.82,49.49,7.17,74.24c0.14,1.51,0.42,2.71,0.75,3.73
		c0.33,1.04,0.88,1.99,1.59,2.9c0.48,0.56,1.17,1.03,2.04,1.39c0.88,0.43,1.63,0.61,2.28,0.67c-0.19,1.33-0.38,2.64-0.57,3.97
		C374.18,91.3,366.83,91.3,359.48,91.3L359.48,91.3z"/>
	<path class="st5" d="M419.26,5.6c-0.19,1.33-0.38,2.66-0.57,3.99c-0.79,0.05-1.82,0.22-3.07,0.53c-1.25,0.32-2.19,0.61-2.81,0.91
		c-1.06,0.56-1.82,1.33-2.27,2.42s-0.8,2.29-0.98,3.62c-2.99,20.89-6.15,41.75-9.15,62.64c-0.04,0.24-0.08,0.54-0.11,0.9
		c-0.03,0.37-0.03,0.67-0.03,0.96c0,0.91,0.11,1.7,0.37,2.36c0.27,0.67,0.73,1.2,1.37,1.7c0.38,0.3,1.21,0.59,2.5,0.96
		c1.29,0.43,2.25,0.67,2.88,0.74c-0.18,1.33-0.38,2.64-0.56,3.97c-8.08,0-16.15,0-24.24,0c0.19-1.33,0.38-2.64,0.57-3.97
		c0.71-0.06,1.71-0.18,3.04-0.37c1.33-0.19,2.23-0.42,2.81-0.72c0.98-0.56,1.75-1.33,2.23-2.36c0.48-0.98,0.84-2.18,1.02-3.57
		c2.97-20.91,6.11-41.78,9.07-62.69c0.04-0.37,0.08-0.72,0.11-1.09c0.04-0.37,0.04-0.72,0.04-1.09c0-0.79-0.13-1.51-0.31-2.11
		c-0.23-0.61-0.69-1.14-1.37-1.63c-0.68-0.48-1.59-0.95-2.77-1.38c-1.17-0.43-2.05-0.67-2.62-0.72c0.18-1.33,0.38-2.66,0.56-3.99
		C403.07,5.6,411.17,5.6,419.26,5.6L419.26,5.6z"/>
	<path class="st5" d="M466.47,87.32c-0.19,1.33-0.41,2.64-0.6,3.97c-4.54,0-9.08,0-13.61,0c-2.13-8.17-4.25-15.08-6.11-20.89
		c-1.9-5.75-3.98-11.76-6.07-18.12c-1.86,0-3.74,0-5.6,0c-1.31,9.23-2.72,18.44-4.03,27.67c-0.03,0.3-0.08,0.72-0.1,1.14
		c-0.04,0.43-0.08,0.79-0.08,0.98c0,0.9,0.11,1.75,0.33,2.4c0.19,0.67,0.57,1.2,1.15,1.63c0.33,0.26,1.1,0.48,2.27,0.72
		c1.14,0.32,2.08,0.43,2.85,0.5c-0.2,1.33-0.41,2.64-0.61,3.97c-7.58,0-15.17,0-22.75,0c0.19-1.33,0.41-2.64,0.6-3.97
		c0.65-0.06,1.52-0.24,2.69-0.43c1.19-0.18,2.02-0.48,2.51-0.79c0.91-0.54,1.59-1.38,2.08-2.47c0.48-1.04,0.8-2.31,0.98-3.68
		c2.97-20.88,6.11-41.7,9.07-62.58c0.04-0.43,0.11-0.85,0.15-1.27c0.04-0.43,0.04-0.79,0.04-1.22c0-0.85-0.13-1.57-0.31-2.23
		c-0.19-0.67-0.57-1.14-1.14-1.51c-0.54-0.32-1.3-0.67-2.32-0.98c-1.02-0.3-1.85-0.54-2.5-0.59c0.19-1.33,0.38-2.66,0.57-3.99
		c8.06,0,16.13,0,24.19,0c2.16,0,4.17,0.35,5.96,1.03c1.77,0.67,3.3,1.62,4.5,2.84c1.33,1.28,2.41,2.95,3.19,5.08
		c0.78,2.11,1.17,4.58,1.17,7.42c0,3.81-0.47,7.24-1.33,10.33c-0.89,3.16-2.14,5.78-3.64,8.03c-1.58,2.32-3.42,4.15-5.42,5.69
		s-4.25,2.69-6.67,3.62c1.94,6.12,3.59,10.86,4.81,14.43c1.24,3.57,2.72,7.9,4.36,13.11c0.85,2.61,1.63,4.47,2.31,5.62
		c0.68,1.15,1.42,2.1,2.17,2.77c0.64,0.56,1.44,0.96,2.46,1.27C465.02,87.15,465.83,87.26,466.47,87.32L466.47,87.32z M455.62,23.24
		c0-4.12-0.82-7.29-2.39-9.61c-1.58-2.31-3.83-3.44-6.67-3.44c-2.02,0-4.02,0-6.04,0c-1.74,12.42-3.57,24.8-5.31,37.22
		c1.8,0,3.59,0,5.38,0c4.13,0,7.73-2.26,10.62-6.95C454.1,35.82,455.62,30.11,455.62,23.24L455.62,23.24z"/>
	<path class="st5" d="M506.44,93.06c-3.11,0-5.84-0.59-8.15-1.87c-2.35-1.23-4.26-2.58-5.69-4.23c-0.71,1.47-1.45,2.93-2.16,4.41
		c-1.02,0-2.03,0-3.04,0c1.21-9.79,2.5-19.56,3.71-29.35c1.02,0,2.05,0,3.07,0c0.11,3.51,0.42,6.76,0.87,9.84
		c0.45,3.09,1.24,5.8,2.28,8.28c1.03,2.55,2.44,4.45,4.13,5.86c1.68,1.41,3.79,2.11,6.29,2.11c3.75,0,6.81-1.67,9.06-5.01
		c2.26-3.35,3.42-7.85,3.42-13.6c0-3.08-0.51-5.85-1.44-8.27c-0.93-2.42-2.4-4.26-4.33-5.62c-1.81-1.28-3.61-2.34-5.38-3.38
		c-1.77-0.98-3.57-2.1-5.27-3.44c-2.27-1.78-4.12-4.21-5.46-7.48c-1.38-3.22-2.09-6.89-2.09-10.94c0-3.86,0.55-7.42,1.63-10.69
		c1.05-3.27,2.49-6.07,4.25-8.46c1.68-2.31,3.8-4.09,6.25-5.5c2.42-1.41,4.86-2.05,7.25-2.05c2.25,0,4.4,0.4,6.4,1.27
		c2.02,0.87,4.04,2.39,6.04,4.77c0.69-1.38,1.4-2.72,2.09-4.1c1.01,0,2.02,0,3.02,0c-1.25,9.48-2.58,18.95-3.83,28.44
		c-1.02,0-2.04,0-3.07,0c-0.06-3.08-0.27-6.28-0.56-9.6c-0.33-3.32-0.89-6.04-1.63-8.22c-0.82-2.36-2.02-4.21-3.48-5.61
		c-1.48-1.35-3.5-2-5.96-2c-3,0-5.49,1.6-7.48,4.9c-1.98,3.33-3.02,7.18-3.02,11.71c0,2.96,0.38,5.5,1.1,7.55
		c0.7,2.13,1.9,3.8,3.44,5.08c1.66,1.41,3.42,2.52,5.27,3.51c1.82,1.04,3.46,2.03,4.9,3.14c2.9,2.19,5.22,4.74,6.83,7.85
		c1.61,3.09,2.42,6.82,2.42,11.23c0,4.29-0.59,8.27-1.75,11.95c-1.15,3.7-2.74,6.81-4.66,9.31c-2.03,2.69-4.34,4.69-6.86,6.1
		C512.32,92.35,509.51,93.06,506.44,93.06L506.44,93.06z"/>
	<path class="st5" d="M564.49,56.51c-1.1-11.13-2.27-22.27-3.37-33.4c-4.22,11.18-8.66,22.22-12.9,33.4
		C553.65,56.51,559.07,56.51,564.49,56.51L564.49,56.51z M558.66,91.3c0.18-1.33,0.38-2.64,0.56-3.97c0.8-0.13,1.71-0.3,2.77-0.5
		c1.03-0.18,1.86-0.42,2.44-0.72c0.79-0.43,1.37-0.83,1.77-1.27c0.38-0.43,0.57-1.15,0.57-2.05c0-0.3-0.15-2.29-0.42-5.93
		c-0.29-3.62-0.73-8.68-1.29-15.27c-6.3,0-12.62,0-18.92,0c-0.82,2.11-1.72,4.52-2.65,7.24c-0.93,2.79-1.68,4.89-2.17,6.34
		c-0.45,1.27-0.88,2.71-1.29,4.28c-0.41,1.63-0.64,2.66-0.64,3.2c0,1.33,0.69,2.4,2,3.2c1.33,0.8,3.04,1.27,5.05,1.46
		c-0.19,1.33-0.38,2.64-0.57,3.97c-6.88,0-13.75,0-20.63,0c0.19-1.33,0.38-2.64,0.57-3.97c0.64-0.06,1.52-0.3,2.54-0.74
		c1.06-0.37,1.94-0.83,2.65-1.51c0.87-0.8,1.75-1.79,2.58-3.01c0.79-1.17,1.68-2.96,2.62-5.32c4.29-11.1,9.26-23.26,14.42-36.85
		c5.1-13.59,9.85-25.33,13.77-35.52c1.01,0,2.02,0,3.02,0c2.35,24.75,4.84,49.49,7.17,74.24c0.15,1.51,0.42,2.71,0.77,3.73
		c0.33,1.04,0.87,1.99,1.58,2.9c0.5,0.56,1.19,1.03,2.05,1.39c0.87,0.43,1.63,0.61,2.27,0.67c-0.18,1.33-0.38,2.64-0.56,3.97
		C573.35,91.3,566,91.3,558.66,91.3L558.66,91.3z"/>
	<path class="st5" d="M659.61,38.64c0,8.15-1.02,15.57-3,22.22c-1.98,6.73-4.66,12.16-7.85,16.61c-3.34,4.57-7.11,7.93-11.23,10.33
		c-4.12,2.39-8.5,3.49-13,3.49c-7.83,0-15.66,0-23.48,0c0.18-1.33,0.38-2.64,0.56-3.97c0.65,0,1.59-0.13,2.81-0.3
		c1.17-0.19,2.05-0.48,2.54-0.79c0.92-0.56,1.61-1.39,2.09-2.42c0.45-1.03,0.77-2.23,0.94-3.62c2.93-20.57,6.02-41.11,8.96-61.68
		c0.08-0.48,0.15-1.03,0.23-1.62c0.03-0.54,0.06-1.03,0.06-1.39c0-0.91-0.08-1.68-0.26-2.36c-0.19-0.67-0.61-1.2-1.17-1.63
		c-0.65-0.48-1.49-0.9-2.44-1.27c-0.94-0.3-1.7-0.54-2.19-0.66c0.18-1.33,0.38-2.66,0.56-3.99c7.6,0,15.2,0,22.8,0
		c2.27,0,4.75,0.46,7.43,1.51c2.69,1.04,5.22,2.8,7.52,5.32c2.44,2.63,4.47,6.09,5.92,10.45C658.87,27.29,659.61,32.53,659.61,38.64
		L659.61,38.64z M650.69,38.75c0-8.99-1.54-16.02-4.54-21.07c-3.04-5.06-7.09-7.5-12.13-7.5c-1.03,0-2.13,0-3.23,0.06
		c-1.1,0.06-1.98,0.11-2.62,0.18c-3.15,22.2-6.48,44.36-9.63,66.57c-0.08,0.54-0.15,1.09-0.19,1.63c-0.04,0.54-0.08,1.03-0.08,1.51
		c0,2.42,0.65,4.09,1.9,5.08c1.24,1.04,3.33,1.51,6.21,1.51c3.76,0,7.23-1.35,10.32-4.1c3.05-2.76,5.68-6.39,7.69-10.94
		c2.05-4.73,3.7-9.84,4.75-15.4C650.14,50.72,650.69,44.85,650.69,38.75L650.69,38.75z"/>
	<path class="st5" d="M712.97,5.6c-0.98,6.89-2.02,13.76-3,20.65c-0.94,0-1.89,0-2.85,0c-0.14-4.29-0.73-7.85-1.67-10.75
		c-0.96-2.92-2.31-4.52-3.98-4.95c-0.75-0.19-1.66-0.3-2.77-0.37c-1.1-0.06-2.31-0.11-3.67-0.11c-2.88,0-5.77,0-8.65,0
		c-1.63,11.5-3.37,22.97-5,34.48c2.04,0,4.07,0,6.11,0c1.85,0,3.33-0.29,4.35-0.9c1.02-0.56,1.99-1.51,2.77-2.9
		c0.75-1.22,1.49-2.9,2.21-5.01c0.7-2.11,1.21-3.86,1.56-5.32c0.94,0,1.89,0,2.85,0c-1.59,11.17-3.28,22.3-4.86,33.47
		c-0.94,0-1.89,0-2.85,0c0-0.43,0.04-0.98,0.08-1.63c0.04-0.61,0.04-1.27,0.04-1.99c0-1.52-0.08-2.9-0.19-4.29
		c-0.1-1.39-0.31-2.36-0.52-3.03c-0.52-1.57-1.3-2.58-2.28-3.08c-0.98-0.5-2.27-0.72-3.87-0.72c-2,0-4.02,0-6.02,0
		c-1.25,8.76-2.56,17.51-3.8,26.27c-0.14,0.96-0.27,1.99-0.37,3.14c-0.11,1.15-0.15,1.99-0.15,2.66c0,2.23,0.5,3.67,1.52,4.41
		c0.97,0.74,3.18,1.09,6.6,1.09c4.25,0,7.13-0.24,8.64-0.72c1.52-0.5,2.67-1.2,3.38-2.11c1.43-1.89,3.18-4.82,5.08-8.88
		c1.91-4.07,3.24-7.07,3.9-8.94c0.92,0,1.82,0,2.73,0c-1.53,8.41-3.16,16.82-4.7,25.23c-14.89,0-29.78,0-44.67,0
		c0.18-1.33,0.38-2.64,0.56-3.97c0.8-0.06,1.82-0.24,3.11-0.54c1.29-0.26,2.16-0.48,2.62-0.79c0.87-0.56,1.56-1.33,2.04-2.36
		c0.46-1.04,0.77-2.31,0.96-3.68c2.95-20.76,6.07-41.46,9.02-62.22c0.04-0.29,0.11-0.66,0.15-1.07c0.04-0.43,0.04-0.79,0.04-1.15
		c0-0.79-0.11-1.51-0.31-2.18c-0.22-0.66-0.61-1.2-1.17-1.63c-0.6-0.54-1.48-0.95-2.58-1.38c-1.1-0.43-1.98-0.67-2.62-0.72
		c0.18-1.33,0.38-2.66,0.56-3.99C685.18,5.6,699.08,5.6,712.97,5.6L712.97,5.6z"/>
	<path class="st5" d="M753.73,93.36c-2.77,0-5.36-0.77-7.81-2.31c-2.46-1.52-4.62-3.72-6.41-6.7c-1.84-2.98-3.32-6.58-4.33-10.81
		c-1.05-4.23-1.59-9-1.59-14.31c0-7.67,0.83-14.79,2.42-21.39c1.61-6.6,3.87-12.46,6.67-17.7c2.69-5.05,6.06-8.96,9.86-12.08
		c3.81-3.06,7.81-4.53,11.98-4.53c3.15,0,5.96,0.59,8.34,1.76c2.39,1.23,4.34,2.63,5.88,4.41c0.7-1.38,1.43-2.72,2.12-4.1
		c1.02,0,2.03,0,3.04,0c-1.34,10.19-2.76,20.36-4.1,30.55c-1.03,0-2.07,0-3.11,0c0-0.8,0-1.6,0-2.4c0-3.33-0.15-6.47-0.48-9.48
		c-0.33-2.96-0.97-5.67-1.9-8.11c-0.89-2.36-2.17-4.2-3.71-5.61c-1.58-1.41-3.6-2.11-6.07-2.11c-3.1,0-6.01,1.3-8.64,3.99
		c-2.68,2.69-5.04,6.14-6.94,10.56c-1.91,4.31-3.48,9.55-4.63,15.76c-1.15,6.3-1.75,12.69-1.75,19.16c0,8.57,1.37,15.49,3.98,20.83
		c2.59,5.42,6.19,8.04,10.63,8.04c3.71,0,7.16-1.71,10.27-5.25c3.09-3.54,5.69-8.2,7.63-14.08c0.89,0.79,1.82,1.52,2.73,2.31
		c-3.14,8.67-6.79,14.68-10.67,18.3C763.28,91.65,758.79,93.36,753.73,93.36L753.73,93.36z"/>
	<path class="st5" d="M840.89,5.6c-0.19,1.33-0.38,2.66-0.57,3.99c-0.65,0.05-1.48,0.22-2.46,0.66c-0.98,0.43-1.86,0.9-2.58,1.57
		c-1.1,0.98-1.99,2.1-2.62,3.38c-0.68,1.28-1.42,2.84-2.13,4.6c-2.58,6.42-6.72,16.37-12.02,30.07
		c-5.33,13.71-11.05,27.8-16.69,42.52c-1.05,0-2.09,0-3.15,0c-1.19-13.59-2.53-28.32-3.9-44.2c-1.38-15.89-2.36-26.03-2.77-30.46
		c-0.1-1.31-0.38-2.47-0.71-3.38c-0.37-0.9-0.92-1.73-1.63-2.6c-0.56-0.67-1.25-1.2-2.05-1.57c-0.79-0.3-1.51-0.54-2.19-0.59
		c0.19-1.33,0.38-2.66,0.57-3.99c7.25,0,14.51,0,21.77,0c-0.19,1.33-0.38,2.66-0.57,3.99c-2.69,0.18-4.56,0.59-5.65,1.2
		c-1.1,0.67-1.66,1.57-1.66,2.77c0,0.43,0,0.85,0.03,1.28c0.04,0.48,0.04,0.83,0.04,1.03c0.34,3.93,0.93,10.45,1.71,19.5
		c0.78,9.13,2,21.87,3.5,38.35c3.47-8.8,7.15-17.78,10.73-27.17c3.59-9.4,6.28-16.23,7.89-20.6c1.49-4.05,2.48-6.87,2.81-8.51
		c0.33-1.63,0.5-2.66,0.5-3.09c0-0.79-0.24-1.51-0.73-2.05c-0.48-0.54-1.1-1.03-1.82-1.39c-0.71-0.42-1.54-0.72-2.42-0.9
		c-0.87-0.19-1.63-0.37-2.27-0.42c0.19-1.33,0.38-2.66,0.57-3.99C827.21,5.6,834.05,5.6,840.89,5.6L840.89,5.6z"/>
</g>
</svg>
