<?xml version="1.0" encoding="UTF-8"?>
<svg id="Capa_3" data-name="Capa 3" xmlns="http://www.w3.org/2000/svg" viewBox="0 0 139.4 120.82">
  <defs>
    <style>
      .cls-1 {
        fill: #5faedf;
        stroke: #5faedf;
        stroke-miterlimit: 10;
      }
    </style>
  </defs>
  <path class="cls-1" d="m11.33.51c-2.56,0-5.1.7-7.22,2.14-1.88,1.27-3.6,3.18-3.6,5.86v3.51c0,2.72,1.32,5.34,3.64,6.77.85.52,1.88.97,3.12,1.23.81.17,1.64.22,2.47.22h122.51s6.4-.53,6.67-5.87v-7.2s-.8-6.93-9.87-6.67H11.33Z"/>
  <path class="cls-1" d="m28.59,50.91c-1.81,0-3.59.7-5.09,2.14-1.32,1.27-2.54,3.18-2.54,5.86v3.51c0,2.72.93,5.34,2.56,6.76.6.52,1.33.97,2.2,1.23.57.17,1.16.22,1.74.22h86.27s4.51-.53,4.69-5.86v-7.2s-.56-6.93-6.95-6.66H28.59Z"/>
  <path class="cls-1" d="m58.1,100.51s-7.11,1.07-7.29,6.4v6.76s.53,6.4,8.18,6.58,23.11,0,23.11,0c0,0,7.64-1.07,8-6.4v-5.69s-.71-7.64-9.24-7.64h-22.76Z"/>
</svg>