<?xml version="1.0" encoding="UTF-8"?>
<svg id="Capa_2" data-name="Capa 2" xmlns="http://www.w3.org/2000/svg" viewBox="0 0 122.99 102.43">
  <defs>
    <style>
      .cls-1 {
        fill: #fcfcfc;
        stroke: #fff;
        stroke-miterlimit: 10;
      }
    </style>
  </defs>
  <path class="cls-1" d="m118.86,1.88c-1.7-.65-4.1-1.03-7.43-.57l-35.6,6.13s-5.73-.13-6,4.13l-22.67.53-.1-6.14c-.03-2.11-1.2-4.08-3.1-4.98-1.46-.69-3.36-.84-5.5.8-1.42,1.09-2.23,2.79-2.23,4.57v5.74S11.89,13.67,1.24,31.58c-1.48,2.48-.68,5.82,1.91,7.09,1.53.75,3.61.74,6.28-1.36,0,0,12.13-17.73,26.8-15.73l-.13,4.67s-8.48,2.48-14.78,8.02c-4.24,3.73-6.55,9.18-6.55,14.82v39.02c0,3.95,1.43,7.83,4.23,10.62,1.79,1.78,4.19,3.21,7.33,3.21h29.87s1.64-.06,3.74-.71c4.98-1.54,8.33-6.23,8.42-11.44l.76-41.07c.04-2.38-.55-4.73-1.77-6.78-3.11-5.22-10.09-14.58-20.21-14.84l.18-6.27h22.36s-.62,4.09,9.78,5.69l32.4,5.6s9.6,1.6,10.67-3.87V7.26c0-2.37-1.42-4.54-3.64-5.38Zm-61.07,88.85s-.1,2.49-3.87,2.84h-24.2c-1.17,0-2.33-.3-3.31-.95-.53-.35-.95-.78-.98-1.25v-7.04h32.36v6.4Zm-4.22-49.98c2.71,2.34,4.22,5.76,4.22,9.34v23.57H25.43v-22.23c0-4.52,2.05-8.84,5.65-11.57,9.67-7.32,17.82-3.14,22.49.89Z"/>
</svg>