<?xml version="1.0" encoding="UTF-8"?>
<svg id="Capa_3" data-name="Capa 3" xmlns="http://www.w3.org/2000/svg" viewBox="0 0 395 291">
  <defs>
    <style>
      .cls-1 {
        fill: #fff;
        stroke: #fff;
        stroke-miterlimit: 10;
      }
    </style>
  </defs>
  <path class="cls-1" d="m280.68,144.74c-.29-3.03-1.9-5.78-4.23-7.73l-79.89-67.68c-5.78-5.56-10,0-10,0l-6.05,4.79-73.96,63.05c-2.77,2.36-4.17,6.01-3.47,9.58.55,2.79,2.2,5.26,6.42,4.64,1.52-.22,2.95-.85,4.21-1.72l8.48-7.22-.15,59.58c0,1.51.14,3.01.47,4.49,1.31,5.96,6.09,19.36,22.49,19.71h92.89s20.44,1.33,23.33-21.78v-60.44l9.19,5.88c1.91,1.22,4.25,1.72,6.45,1.14,2.17-.57,4.22-2.17,3.82-6.28Zm-33.9,59.48c-.22,6-7.33,7.33-7.33,7.33h-18.44v-46.22c-.89-13.33-10.44-12.89-10.44-12.89l-37.78-.44c-9.56,0-11.11,10.67-11.11,10.67l.44,48.89h-18.44c-7.11-.89-7.11-7.11-7.11-7.11v-74.44l55.26-46,54.96,46.67v73.56Z"/>
</svg>