<?xml version="1.0" encoding="UTF-8"?>
<svg id="Capa_2" data-name="Capa 2" xmlns="http://www.w3.org/2000/svg" viewBox="0 0 228.42 146.44">
  <defs>
    <style>
      .cls-1 {
        fill: #fff;
        stroke: #fff;
        stroke-miterlimit: 10;
      }
    </style>
  </defs>
  <path class="cls-1" d="m174.02,50.2c-6.9-7.76-17.4-15.44-28.15-18.67-2.25-.68-4.59-.98-6.94-.94l-21.77.31-.18-13.16,26.31.36s6.76-.71,7.11-6.22l.09-2.69c.09-2.93-1.3-5.78-3.82-7.27-1.27-.75-2.9-1.32-4.98-1.42h-67.02c-1.17,0-2.19.1-3.08.27-3.56.67-6.02,3.98-5.84,7.6l.21,4.22c-.27,2.13,1.51,3.56,3.36,4.44,1.79.86,3.77,1.24,5.76,1.24h25.2v11.91h-47.61c-7.27,0-14.28,3.16-18.74,8.91-2.31,2.98-4.14,6.83-4.59,11.72v13.51l-12.44.74v-29.36c0-2.55-1.01-4.47-2.13-5.81-1.28-1.54-3.25-2.34-5.26-2.23l-3.82.22c-5.19.89-5.19,7.11-5.19,7.11l.04,72.89s0,.05-.01.14c-.33,4.76,3.29,8.87,8.04,9.26h.14c2.74.23,5.48-.98,6.93-3.32.54-.88.95-1.94,1.09-3.23l-.71-29.69,12.98.18.36,19.2c-.02-.74-.18,5.51,4.34,10.77,4.33,5.05,9.71,9.08,16.35,9.35l12.73.51s15.64,25.6,27.38,24.89h68.96c4.81.01,9.57-1.27,13.57-3.93,4.67-3.09,9.38-8.43,9.56-17.41v-52.68c0-8-2.9-15.73-8.21-21.71Zm-13.13,77.23h-72.36l-12.8-16c-1.82-3.28-4.81-5.48-7.29-6.85-2.23-1.23-4.74-1.85-7.29-1.86h-11.91c-4.44.17-4.27-4.09-4.27-4.09v-46.58c0-1.06.79-1.94,1.65-2.58,1.03-.76,2.29-1.16,3.57-1.16h91.15c1.5,0,2.95.48,4.15,1.38l17.74,13.26c1.77,1.33,2.83,3.4,2.85,5.62l.5,52.99c0,6.04-5.69,5.87-5.69,5.87Z"/>
  <path class="cls-1" d="m203.52,48.32s-9.07.53-8.93,10l-.13,75.02c0,2.39.52,4.78,1.7,6.86,1.4,2.48,3.9,4.98,8.3,5.05h12.61c1.65,0,3.3-.26,4.82-.87,2.78-1.13,6.11-3.69,6.03-9.53V58.72s.1-10.4-10.93-10.4h-13.47Z"/>
</svg>