<?xml version="1.0" encoding="UTF-8"?>
<svg id="Capa_2" data-name="Capa 2" xmlns="http://www.w3.org/2000/svg" viewBox="0 0 168.45 135.38">
  <defs>
    <style>
      .cls-1 {
        fill: none;
      }

      .cls-1, .cls-2, .cls-3, .cls-4, .cls-5 {
        stroke-miterlimit: 10;
      }

      .cls-1, .cls-5 {
        stroke: #fff;
      }

      .cls-2, .cls-3, .cls-4 {
        stroke: #f9f9f7;
      }

      .cls-2, .cls-5 {
        fill: #fbfbf9;
      }

      .cls-3 {
        fill: #fff;
      }

      .cls-4 {
        fill: #fafaf8;
      }
    </style>
  </defs>
  <path class="cls-5" d="m86.46,75.48h-3.78s-17.09-22.9-4.39-69.47c.44-1.6,1.31-3.09,2.59-4.14s3.16-1.92,5.27-.92h0c1.32.81,2.34,2.04,2.92,3.48,14.58,36.02-2.61,71.06-2.61,71.06"/>
  <path class="cls-3" d="m95.97,51.35l-2.27,11.2s24.27,7.87,19.87,31.33l11.73,3.87s8.13-35.47-29.33-46.4Z"/>
  <path class="cls-2" d="m97.61,93.62l-1.78,3.02s19.56,29.33,65.07,38.04c0,0,10.04,1.15,6.16-6.86-.87-1.8-2.17-3.35-3.72-4.61-7.72-6.24-38.46-29.6-65.72-29.6Z"/>
  <path class="cls-4" d="m70.77,93.62l1.96,2.67s-17.78,25.78-54.58,36.27c0,0-12.98,4.44-16.71,1.07,0,0-2.99-2.59,1.74-8.59,1.24-1.58,2.71-2.95,4.3-4.18,7.6-5.89,38.27-28.3,63.3-27.22Z"/>
  <path class="cls-3" d="m64.19,109.08s18.69,15.23,40.18,0l9.07,6.77s-21.69,25.59-58.31.88l9.07-7.64Z"/>
  <path class="cls-3" d="m72.03,52.43s-38.07,10.87-28.82,45.32l11.91-4.13s-5.33-23.47,19.73-31.11l-2.82-10.07Z"/>
  <path class="cls-3" d="m92.1,67.72l-3.73,8.47s13.33,3.73,9.96,15.47l9.6,1.07s4.44-18.36-15.82-25Z"/>
  <path class="cls-3" d="m74.86,98.95s8.33,6.63,18.84,0l6.58,6.4s-14.76,13.16-31.64,0l6.22-6.4Z"/>
  <path class="cls-3" d="m76.46,67.72l3.56,7.76s-11.26,3.86-10.13,15.64l-8.89,1.6s-5.51-17.47,15.47-25Z"/>
  <path class="cls-1" d="m81.1,78.42c-3.76,1.23-9.26,4.17-8.85,10.81.21,3.45,2.14,6.52,5.06,8.36,2.72,1.71,6.69,3.17,11.06,1.36,0,0,9.14-2.98,7.47-11.38,0,0,.41-7.21-7.46-9.37-2.39-.66-4.92-.55-7.28.22Z"/>
  <path class="cls-1" d="m84.27,82.92c-.63.89-1.01,2.03-.39,3.29,1.18,2.4,4.34,3.23,6.5,1.66.62-.45,1.22-1.12,1.71-2.09,0,0,.72-3.97-2.78-4.78-1.89-.44-3.92.33-5.05,1.91Z"/>
</svg>