<?xml version="1.0" encoding="UTF-8"?>
<svg xmlns="http://www.w3.org/2000/svg" viewBox="0 0 118.48 146.76">
  <defs>
    <style>
      .cls-1, .cls-2 {
        fill: #fff;
      }

      .cls-3 {
        fill: none;
      }

      .cls-3, .cls-4, .cls-2, .cls-5, .cls-6 {
        stroke-miterlimit: 10;
      }

      .cls-3, .cls-6 {
        stroke: #fff;
      }

      .cls-4, .cls-2, .cls-5 {
        stroke: #f9f9f7;
      }

      .cls-4, .cls-6 {
        fill: #fbfbf9;
      }

      .cls-5 {
        fill: #fafaf8;
      }
    </style>
  </defs>
  <g id="Capa_3" data-name="Capa 3">
    <path class="cls-1" d="m116.56,30.04c-2.47-4.62-7.51-11.26-16.1-11.54h-17.43S77.71,0,59.24,0c0,0-18.8-1.03-23.67,18.06l-16.1.43c-2.3,0-4.61.32-6.78,1.06C7.62,21.31,0,25.8,0,36.98v93.02c0,2.2.42,4.4,1.38,6.41,1.95,4.08,6.4,9.98,15.91,10.35h83.21c.83,0,1.66-.09,2.47-.3,2.31-.58,6.82-2.11,10.43-5.26,3.35-2.93,5.09-7.2,5.09-11.56V37.96c0-2.75-.61-5.48-1.92-7.92Zm-57.32-14.31c4.62,0,8.37,3.29,8.37,7.36s-3.75,7.36-8.37,7.36-8.37-3.29-8.37-7.36,3.75-7.36,8.37-7.36Zm45.47,20.48v94.87c-.06,3.36-2.99,2.77-2.99,2.77,0,0-81.52,0-84.71.03-3.19.03-3.05-2.93-3.05-2.93l.11-94.31c0-3.84,4.1-4.16,4.1-4.16h6.43c-1,13.06,5.32,13.81,5.32,13.81h57.84c8.37.32,6.04-13.81,6.04-13.81h8.03c3.93.05,2.88,3.73,2.88,3.73Z"/>
  </g>
  <g id="Capa_4" data-name="Capa 4">
    <path class="cls-6" d="m61.22,92.57h-.59c-.63,0-1.21-.34-1.52-.89-1.55-2.75-5.57-11.92-1.26-27.68.18-.66.54-1.27,1.07-1.7s1.3-.79,2.17-.38h0c.54.33.97.84,1.2,1.43,6.01,14.81-1.08,29.21-1.08,29.21"/>
    <path class="cls-2" d="m64.75,84.59l-.26,1.26c-.16.79.24,1.58.97,1.93,2.47,1.17,7.64,4.43,7.12,11-.06.81.42,1.56,1.19,1.81l1.44.47c1.09.36,2.23-.41,2.3-1.55.23-4.01-.56-12.4-10.44-16.21-1-.39-2.12.24-2.33,1.29Z"/>
    <path class="cls-4" d="m92.04,116.92c.66.05,3.87.13,2.43-2.83-.36-.74-.9-1.38-1.53-1.9-3.18-2.57-15.86-12.17-27.11-12.17h0s-.14.24-.14.24c-.37.62-.32,1.41.14,1.97,2.36,2.93,10.54,11.67,26.01,14.65"/>
    <path class="cls-5" d="m27.26,116.93c-1-.16-1.67-1.15-1.41-2.13.13-.5.43-1.12,1.02-1.86.51-.65,1.12-1.21,1.77-1.72,3.13-2.42,15.79-11.63,26.11-11.19h0s.03.03.03.03c.47.64.45,1.52-.06,2.14-2.32,2.81-9.45,10.36-21.67,13.83,0,0-3.64,1.24-5.78.9"/>
    <path class="cls-2" d="m52.03,106.38s7.16,5.82,15.62.63c.6-.37,1.37-.32,1.94.1l1.06.79c.94.7.93,2.08,0,2.79-3.05,2.33-10.13,5.92-20.28.13-1.05-.6-1.16-2.06-.24-2.84l1.9-1.6h0Z"/>
    <path class="cls-2" d="m55.27,83.09s-14.16,4.03-12.32,16.57c.16,1.09,1.26,1.78,2.31,1.41l1.7-.59c.74-.26,1.23-.97,1.17-1.75-.18-2.55.24-8.26,6.83-10.98.83-.34,1.28-1.23,1.04-2.09l-.72-2.58h0Z"/>
    <path class="cls-2" d="m63.55,89.38l-.83,1.88c-.37.83-.03,1.8.77,2.23,1.25.69,2.84,1.99,2.86,4.19,0,.89.67,1.64,1.55,1.73l.41.04c1.05.12,1.97-.71,1.94-1.76-.05-2.43-1.04-6.48-6.69-8.32h0Z"/>
    <path class="cls-2" d="m57.49,102.82c1.17.53,3.23,1.06,5.66-.04.67-.3,1.45-.19,1.98.32l.22.22c.87.84.63,2.28-.45,2.82-2.02,1-5.35,1.91-9.1-.05-1.04-.54-1.26-1.93-.44-2.76l.15-.15c.52-.53,1.31-.66,1.99-.35Z"/>
    <path class="cls-2" d="m57.09,89.38l.78,1.7c.36.78.07,1.7-.65,2.17-1.14.74-2.62,2.13-2.85,4.46-.07.77-.66,1.4-1.43,1.54l-.44.08c-1.08.19-2.05-.63-2.06-1.72-.01-2.36.93-6.19,6.65-8.24h0Z"/>
    <path class="cls-3" d="m59.01,93.78c-1.55.51-3.82,1.71-3.65,4.44.09,1.42.88,2.68,2.09,3.44,1.12.7,2.76,1.3,4.56.56,0,0,3.77-1.23,3.08-4.68,0,0,.17-2.96-3.08-3.85-.99-.27-2.03-.23-3,.09Z"/>
    <path class="cls-3" d="m60.32,95.63c-.26.37-.42.83-.16,1.35.49.99,1.79,1.33,2.68.68.01,0,.03-.02.04-.03.59-.45.83-1.27.55-1.96-.15-.36-.45-.7-1.03-.84-.78-.18-1.62.14-2.08.79h0Z"/>
  </g>
</svg>