<?xml version="1.0" encoding="UTF-8"?>
<svg xmlns="http://www.w3.org/2000/svg" viewBox="0 0 118.48 146.76">
  <defs>
    <style>
      .cls-1, .cls-2 {
        fill: #fff;
      }

      .cls-2 {
        stroke: #fcfcfc;
        stroke-miterlimit: 10;
      }
    </style>
  </defs>
  <g id="Capa_2" data-name="Capa 2">
    <g>
      <path class="cls-2" d="m82.5,81.37c-2.44-2.92-6.15-5.81-9.95-7.03-.8-.26-1.62-.37-2.45-.35l-7.7.12-.06-4.96,9.3.14s2.39-.27,2.51-2.34l.03-1.01c.03-1.1-.46-2.18-1.35-2.74-.45-.28-1.03-.5-1.76-.53h-23.7c-.41,0-.77.04-1.09.1-1.26.25-2.13,1.5-2.07,2.86l.07,1.59c-.1.8.53,1.34,1.19,1.67.63.32,1.33.47,2.04.47h8.91v4.48h-16.84c-2.57,0-5.05,1.19-6.63,3.36-.82,1.12-1.46,2.57-1.62,4.41v5.09l-4.4.28v-11.06c0-.96-.36-1.68-.75-2.19-.45-.58-1.15-.88-1.86-.84l-1.35.08c-1.84.34-1.84,2.68-1.84,2.68v27.45s.01.02.01.05c-.12,1.79,1.16,3.34,2.84,3.49h.05c.97.09,1.94-.37,2.45-1.25.19-.33.34-.73.39-1.22l-.25-11.18,4.59.07.13,7.23c0-.28-.06,2.07,1.53,4.06,1.53,1.9,3.43,3.42,5.78,3.52l4.5.19s5.53,9.64,9.68,9.37h24.39c1.7,0,3.38-.48,4.8-1.48,1.65-1.16,3.32-3.17,3.38-6.56v-19.84c0-3.01-1.03-5.92-2.9-8.18h0Zm-4.64,29.08h-25.59l-4.53-6.03c-.64-1.24-1.7-2.06-2.58-2.58-.79-.46-1.68-.7-2.58-.7h-4.21c-1.57.06-1.51-1.54-1.51-1.54v-17.54c0-.4.28-.73.58-.97.36-.29.81-.44,1.26-.44h32.23c.53,0,1.04.18,1.47.52l6.27,4.99c.63.5,1,1.28,1.01,2.12l.18,19.95c0,2.27-2.01,2.21-2.01,2.21Z"/>
      <path class="cls-2" d="m88.72,80.66s-3.21.2-3.16,3.77l-.05,28.25c0,.9.18,1.8.6,2.58.5.93,1.38,1.88,2.94,1.9h4.46c.58,0,1.17-.1,1.7-.33.98-.43,2.16-1.39,2.13-3.59v-28.67s.04-3.92-3.87-3.92h-4.76,0Z"/>
    </g>
  </g>
  <g id="Capa_3" data-name="Capa 3">
    <path class="cls-1" d="m116.56,30.04c-2.47-4.62-7.51-11.26-16.1-11.54h-17.43S77.71,0,59.24,0c0,0-18.8-1.03-23.67,18.06l-16.1.43c-2.3,0-4.61.32-6.78,1.06C7.62,21.31,0,25.8,0,36.98v93.02c0,2.2.42,4.4,1.38,6.41,1.95,4.08,6.4,9.98,15.91,10.35h83.21c.83,0,1.66-.09,2.47-.3,2.31-.58,6.82-2.11,10.43-5.26,3.35-2.93,5.09-7.2,5.09-11.56V37.96c0-2.75-.61-5.48-1.92-7.92Zm-57.32-14.31c4.62,0,8.37,3.29,8.37,7.36s-3.75,7.36-8.37,7.36-8.37-3.29-8.37-7.36,3.75-7.36,8.37-7.36Zm45.47,20.48v94.87c-.06,3.36-2.99,2.77-2.99,2.77,0,0-81.52,0-84.71.03-3.19.03-3.05-2.93-3.05-2.93l.11-94.31c0-3.84,4.1-4.16,4.1-4.16h6.43c-1,13.06,5.32,13.81,5.32,13.81h57.84c8.37.32,6.04-13.81,6.04-13.81h8.03c3.93.05,2.88,3.73,2.88,3.73Z"/>
  </g>
</svg>