<?xml version="1.0" encoding="UTF-8"?>
<svg xmlns="http://www.w3.org/2000/svg" viewBox="0 0 118.48 146.76">
  <defs>
    <style>
      .cls-1 {
        fill: #fff;
      }

      .cls-2 {
        fill: #fcfcfc;
        stroke: #fff;
        stroke-miterlimit: 10;
      }
    </style>
  </defs>
  <g id="Capa_3" data-name="Capa 3">
    <path class="cls-1" d="m116.56,30.04c-2.47-4.62-7.51-11.26-16.1-11.54h-17.43S77.71,0,59.24,0c0,0-18.8-1.03-23.67,18.06l-16.1.43c-2.3,0-4.61.32-6.78,1.06C7.62,21.31,0,25.8,0,36.98v93.02c0,2.2.42,4.4,1.38,6.41,1.95,4.08,6.4,9.98,15.91,10.35h83.21c.83,0,1.66-.09,2.47-.3,2.31-.58,6.82-2.11,10.43-5.26,3.35-2.93,5.09-7.2,5.09-11.56V37.96c0-2.75-.61-5.48-1.92-7.92Zm-57.32-14.31c4.62,0,8.37,3.29,8.37,7.36s-3.75,7.36-8.37,7.36-8.37-3.29-8.37-7.36,3.75-7.36,8.37-7.36Zm45.47,20.48v94.87c-.06,3.36-2.99,2.77-2.99,2.77,0,0-81.52,0-84.71.03-3.19.03-3.05-2.93-3.05-2.93l.11-94.31c0-3.84,4.1-4.16,4.1-4.16h6.43c-1,13.06,5.32,13.81,5.32,13.81h57.84c8.37.32,6.04-13.81,6.04-13.81h8.03c3.93.05,2.88,3.73,2.88,3.73Z"/>
  </g>
  <g id="Capa_2" data-name="Capa 2">
    <path class="cls-2" d="m97.42,55.31c-1.11-.47-2.67-.74-4.85-.41l-23.23,4.39s-3.74-.09-3.91,2.96l-14.79.38-.07-4.39c-.02-1.51-.78-2.92-2.02-3.56-.95-.49-2.19-.6-3.59.57-.93.78-1.45,2-1.45,3.27v4.11s-15.88,1.13-22.83,13.95c-.97,1.77-.44,4.16,1.25,5.07,1,.54,2.36.53,4.1-.97,0,0,7.91-12.69,17.48-11.26l-.08,3.34s-5.53,1.77-9.64,5.74c-2.77,2.67-4.27,6.57-4.27,10.6v27.92c0,2.83.93,5.6,2.76,7.6,1.17,1.27,2.73,2.3,4.78,2.3h19.49s1.07-.04,2.44-.51c3.25-1.1,5.43-4.46,5.49-8.19l.5-29.39c.03-1.7-.36-3.38-1.15-4.85-2.03-3.74-6.58-10.43-13.18-10.62l.12-4.49h14.59s-.4,2.93,6.38,4.07l21.14,4.01s6.26,1.14,6.96-2.77v-15.02c0-1.7-.93-3.25-2.37-3.85h-.02Zm-39.84,63.58s-.07,1.78-2.52,2.03h-15.79c-.76,0-1.52-.21-2.16-.68-.35-.25-.62-.56-.64-.89v-5.04h21.11v4.58Zm-2.75-35.76c1.77,1.67,2.75,4.12,2.75,6.68v16.87h-21.11v-15.91c0-3.23,1.34-6.33,3.69-8.28,6.31-5.24,11.63-2.25,14.67.64Z"/>
  </g>
</svg>